<?xml version="1.0" encoding="UTF-8"?>
<svg id="Layer_2" data-name="Layer 2" xmlns="http://www.w3.org/2000/svg" xmlns:xlink="http://www.w3.org/1999/xlink" viewBox="0 0 576.59 413.36">
  <defs>
    <style>
      .cls-1 {
        fill: #fff;
      }

      .cls-2 {
        fill: url(#New_Gradient_Swatch_copy_2);
      }

      .cls-3 {
        fill: #d3af5f;
      }

      .cls-4 {
        font-family: Poppins-Light, Poppins;
        font-size: 52.38px;
        font-weight: 300;
        letter-spacing: .3em;
      }
    </style>
    <linearGradient id="New_Gradient_Swatch_copy_2" data-name="New Gradient Swatch copy 2" x1="0" y1="148.73" x2="542.7" y2="148.73" gradientUnits="userSpaceOnUse">
      <stop offset="0" stop-color="#e4ac35"/>
      <stop offset=".02" stop-color="#e2b142"/>
      <stop offset=".06" stop-color="#e0bf64"/>
      <stop offset=".09" stop-color="#dfc571"/>
      <stop offset=".17" stop-color="#9a6f29"/>
      <stop offset=".32" stop-color="#fdc13f"/>
      <stop offset=".45" stop-color="#ae762a"/>
      <stop offset=".54" stop-color="#fff"/>
      <stop offset=".65" stop-color="#bc962e"/>
      <stop offset=".72" stop-color="#fdf3dc"/>
      <stop offset=".72" stop-color="#fbf0d6"/>
      <stop offset=".73" stop-color="#f0e0b0"/>
      <stop offset=".73" stop-color="#e6d28e"/>
      <stop offset=".73" stop-color="#dec671"/>
      <stop offset=".74" stop-color="#d8bc5a"/>
      <stop offset=".74" stop-color="#d3b548"/>
      <stop offset=".75" stop-color="#cfaf3c"/>
      <stop offset=".76" stop-color="#cdac35"/>
      <stop offset=".78" stop-color="#cdac33"/>
      <stop offset=".84" stop-color="#995d24"/>
      <stop offset=".9" stop-color="#e3cc95"/>
      <stop offset=".96" stop-color="#cfaf3a"/>
    </linearGradient>
  </defs>
  <g id="OBJECTS">
    <g>
      <path class="cls-2" d="M542.68,173.59c-.25-4.17-1.82-8.05-3.7-11.66-1.89-3.53-4.21-6.84-7.07-9.68-6.44-7.29-18.45-18.6-29.41-16.59-6.42,1.18-5.55,9.89,3.63,10.29,7.73.34,17.02-.07,25.69,7.18,2.6,2.7,4.75,5.82,6.5,9.14,1.83,3.55,3.33,7.39,3.53,11.35.12,3.96-.84,7.99-2.8,11.42-1.95,3.45-5.07,6.19-8.74,7.64-3.69,1.4-7.74,2.04-11.67,1.53-3.94-.47-7.77-1.82-11.52-3.26-7.51-2.96-14.87-6.36-22.32-9.57-7.43-3.24-14.9-6.41-22.41-9.47l-5.64-2.28c-1.87-.75-3.77-1.53-5.71-2.2-3.87-1.35-7.84-2.4-11.84-3.23-8.01-1.65-16.18-2.38-24.33-2.55-8.16-.16-16.31.25-24.41,1.07-14.75,1.5-29.33,4.27-43.7,7.85.04-.26.08-.51.12-.77.55-4.27.13-8.71-1.25-12.81-1.37-4.1-3.59-7.84-6.25-11.12-1.34-1.65-2.77-3.17-4.3-4.64-.79-.77-1.5-1.39-2.31-2.1-.83-.67-1.64-1.37-2.52-1.97-6.94-5-15.08-7.58-23.06-9.39-.29-.07-.59-.12-.88-.19.33-.29.67-.57,1-.86l1.16-1.08c.41-.4.79-.8,1.15-1.21.73-.83,1.39-1.68,2.02-2.56,2.46-3.51,4.36-7.29,5.78-11.29.71-2,1.28-4.07,1.62-6.24.17-1.09.27-2.18.27-3.36,0-1.22-.15-2.21-.26-3.25-.5-4.13-1.36-8.45-3.56-12.39-1.09-1.95-2.54-3.78-4.29-5.25-1.73-1.5-3.75-2.61-5.83-3.41-2.08-.81-4.23-1.29-6.37-1.57-1.06-.14-2.14-.23-3.24-.28l-1.53-.04c-.2,0-.64-.01-.91,0l-.85.06c-4.36.46-8.46,1.73-12.34,3.55-7.77,3.64-14.17,9.94-18.32,17.34-1.07,1.83-1.95,3.75-2.81,5.74-.37.97-.73,1.83-1.1,2.89l-1,2.89c-.68,1.92-1.33,3.86-1.94,5.81-.63,1.94-1.26,3.88-1.83,5.84-.82,2.68-1.59,5.38-2.35,8.08.71-7.71,1.38-15.42,1.96-23.15.46-6.23.87-12.45,1.11-18.72.09-3.16.22-6.24-.04-9.57-.04-.43-.09-.86-.21-1.37-.07-.27-.11-.52-.36-1-.16-.21-.29-.66-1.18-1.01-.46-.16-1-.09-1.31.05-.32.13-.49.27-.63.39-.46.45-.56.7-.71.94-.13.24-.23.46-.32.67-.18.42-.32.82-.45,1.22-.52,1.57-.9,3.1-1.28,4.64l-.03.13v.12c-.61,6.5-1.38,13.03-2.22,19.54-.85,6.51-1.79,13-2.84,19.48-2.1,12.95-4.58,25.85-7.8,38.56-1.6,6.36-3.38,12.67-5.4,18.89-1,3.11-2.1,6.18-3.26,9.27-1.15,3-2.56,5.92-4.27,8.64-3.41,5.44-8.25,9.97-14.1,12.61-5.83,2.69-12.41,3.52-18.87,3.26-6.49-.26-12.93-1.53-19.22-3.28-6.3-1.76-12.46-4.01-18.54-6.47-3.04-1.23-6.06-2.51-9.09-3.8l-4.53-1.92-4.48-2.04c-5.96-2.76-11.86-5.66-17.86-8.38-6-2.72-12.1-5.26-18.39-7.26-6.29-1.99-12.79-3.42-19.39-3.89-6.59-.49-13.26,0-19.7,1.44-2.69.57-5.34,1.28-7.97,2.08-9.57,2.33-23.72,7.37-27.04,17.35-2.06,6.2,5.99,9.63,10.76,1.78,3.63-5.97,7.1-14.26,15.63-18.4,2.88-.87,5.79-1.63,8.74-2.23,6.42-1.38,13-1.82,19.52-1.28,6.53.52,12.95,1.97,19.18,4,6.23,2.02,12.28,4.6,18.23,7.35,5.96,2.76,11.84,5.7,17.79,8.51l4.48,2.08,4.54,1.96c3.01,1.31,6.04,2.62,9.08,3.88,6.09,2.52,12.28,4.84,18.64,6.66,6.35,1.82,12.89,3.17,19.56,3.49,6.63.31,13.49-.48,19.68-3.26,6.21-2.73,11.39-7.53,15-13.19,1.81-2.84,3.3-5.85,4.53-8.98,1.17-3.06,2.31-6.18,3.36-9.32,2.09-6.27,3.93-12.61,5.6-18.99,1.67-6.38,3.14-12.81,4.54-19.26,1.38-6.45,2.63-12.92,3.79-19.41,1.15-6.49,2.2-13,3.15-19.52.81-5.61,1.54-11.23,2.19-16.88-.02.53-.04,1.06-.07,1.58-.31,6.18-.8,12.38-1.33,18.57-1.08,12.39-2.36,24.77-3.74,37.13l-2.15,18.54c-.01.1-.02.19-.04.29-.46,2.29-.92,4.58-1.36,6.88-2.96,16.01-5.3,32.14-6.47,48.43l4.56.67c.69-3.15,1.19-6.23,1.69-9.33.49-3.09.95-6.19,1.38-9.28.87-6.19,1.68-12.37,2.44-18.56.72-5.76,1.4-11.53,2.05-17.29,2.74-13.76,5.99-27.42,10.03-40.82.56-1.94,1.18-3.85,1.79-5.77.6-1.92,1.23-3.83,1.9-5.73l.98-2.85c.29-.85.71-1.87,1.05-2.79.75-1.72,1.55-3.5,2.52-5.17,3.76-6.73,9.44-12.33,16.38-15.62,3.44-1.64,7.2-2.79,10.9-3.18,3.64-.17,7.6.25,11,1.54,3.43,1.27,6.23,3.62,7.98,6.79,1.79,3.16,2.62,6.95,3.08,10.83.11.97.24,2,.24,2.81,0,.84-.08,1.78-.22,2.69-.28,1.83-.78,3.69-1.42,5.51-1.28,3.63-3.05,7.16-5.23,10.29-.55.78-1.13,1.52-1.74,2.22-.3.35-.62.68-.94.99l-1.06,1c-1.08.99-2.2,1.93-3.35,2.84-.02,0-.04,0-.05-.01-2.12-.38-4.24-.56-6.37-.58-4.25,0-8.5.48-12.67,2.07-1.04.41-2.07.9-3.07,1.58-.99.67-1.99,1.53-2.73,2.78-.35.63-.65,1.35-.75,2.12-.07.35-.07.84-.05,1.28.01.21.03.28.05.42l.03.19s.07.41.08.38c.18.72.51,1.5,1.08,2.16.57.66,1.32,1.15,2.04,1.41,1.47.53,2.77.47,3.94.34,1.18-.15,2.27-.42,3.32-.75,2.09-.66,4.03-1.54,5.9-2.5,3.74-1.93,7.22-4.2,10.53-6.72,1.29.25,2.59.51,3.87.79,7.76,1.73,15.42,4.19,21.7,8.7,6.16,4.64,11.64,10.74,14.07,17.94,1.21,3.59,1.59,7.42,1.12,11.18-.09.74-.22,1.48-.37,2.21-.12.03-.23.06-.35.09-15.73,4.13-31.22,9.17-46.32,15.26-7.54,3.09-15.01,6.34-22.18,10.42-1.79,1.05-3.56,2.12-5.27,3.48-.43.35-.85.71-1.27,1.14-.41.46-.86.87-1.22,1.82-.25.62-.13,1.41-.05,1.61.07.34.18.66.3.97.25.62.59,1.19.97,1.68,1.57,1.98,3.62,3.07,5.63,3.9,2.03.82,4.12,1.31,6.22,1.64,4.19.65,8.4.62,12.55.2,4.14-.43,8.23-1.29,12.2-2.48,7.95-2.39,15.45-6.11,22.28-10.77.85-.59,1.72-1.2,2.52-1.79.39-.28.89-.66,1.29-.99.41-.34.81-.69,1.2-1.04,1.56-1.41,3.02-2.9,4.41-4.47,2.77-3.13,5.22-6.56,7.18-10.31,1.39-2.66,2.52-5.51,3.24-8.47,14.63-3.79,29.5-6.74,44.51-8.36,16.01-1.68,32.31-2.02,48.11,1.03,3.94.78,7.83,1.77,11.63,3.05,1.9.63,3.76,1.38,5.65,2.11l5.65,2.22c7.53,2.98,15.01,6.07,22.47,9.24,7.47,3.13,14.85,6.46,22.46,9.38,3.81,1.41,7.71,2.76,11.84,3.22,4.14.49,8.32-.21,12.18-1.71,3.86-1.56,7.14-4.51,9.15-8.13,2.02-3.62,2.98-7.78,2.83-11.91ZM290.14,133.89c-1.73.89-3.5,1.69-5.27,2.26-.88.28-1.77.5-2.6.61-.82.11-1.62.07-2.06-.1-.43-.19-.52-.28-.69-.81,0-.03,0-.03,0-.04l-.02-.15c-.01-.11-.05-.29-.04-.33.03-.07,0-.09.03-.23.02-.24.12-.47.25-.72.59-1.04,2.17-2.04,3.85-2.69,3.41-1.33,7.36-1.84,11.19-1.83.64,0,1.27.05,1.9.09-2.11,1.44-4.29,2.78-6.53,3.95ZM333.09,189.87c-1.29,1.47-2.66,2.89-4.11,4.2-.36.33-.72.65-1.09.95-.38.32-.68.55-1.12.87-.82.62-1.61,1.17-2.42,1.74-6.53,4.52-13.7,8.12-21.26,10.43-3.78,1.16-7.66,1.99-11.57,2.43-3.91.43-7.87.47-11.69-.11-1.91-.29-3.79-.73-5.52-1.42-1.71-.68-3.35-1.63-4.3-2.86-.24-.3-.43-.62-.55-.93-.07-.11-.11-.32-.14-.46.08-.13.26-.37.45-.56.28-.3.62-.6.98-.89,1.45-1.17,3.15-2.23,4.85-3.24,6.9-3.98,14.3-7.27,21.74-10.36,14.57-5.98,29.56-10.98,44.78-15.12-.62,1.96-1.42,3.87-2.37,5.71-1.78,3.44-4.06,6.67-6.64,9.62ZM14.54,225.68c0,3.91-3.25,7.07-7.27,7.07s-7.27-3.17-7.27-7.07,3.25-7.07,7.27-7.07,7.27,3.17,7.27,7.07ZM22.73,208.65c0,1.95-1.63,3.54-3.63,3.54s-3.63-1.58-3.63-3.54,1.63-3.54,3.63-3.54,3.63,1.58,3.63,3.54ZM462.56,135.48c-.71-3.95,1.84-7.71,5.68-8.4s7.53,1.96,8.24,5.91c.71,3.95-1.84,7.71-5.68,8.4-3.84.69-7.53-1.96-8.24-5.91ZM484.42,138.49c-.35-1.98.92-3.86,2.84-4.2,1.92-.34,3.77.98,4.12,2.95.35,1.98-.92,3.86-2.84,4.2-1.92.34-3.77-.98-4.12-2.96ZM287.35,297.46c-55.75,0-106.36-30.76-132.07-80.27l3.17-1.65c25.1,48.33,74.49,78.35,128.9,78.35,70.69,0,130.82-50.45,142.98-119.97l3.52.61c-12.46,71.23-74.07,122.92-146.5,122.92ZM142.33,181.86c-2.46-10.8-3.7-21.95-3.7-33.13C138.62,66.72,205.34,0,287.35,0s148.73,66.72,148.73,148.73h-3.57c0-80.04-65.12-145.16-145.16-145.16s-145.16,65.12-145.16,145.16c0,10.92,1.22,21.8,3.61,32.34l-3.48.79Z"/>
      <text class="cls-4" transform="translate(17.18 383.82)"><tspan class="cls-3" x="0" y="0">IYAH </tspan><tspan class="cls-1" x="202.94" y="0">BOUTIQUE</tspan></text>
    </g>
  </g>
</svg>